/* XPM */
static char *bitcoin64[] = {
/* columns rows colors chars-per-pixel */
"64 64 205 2 ",
"   c #7F6213",
".  c #866514",
"X  c #8D6B14",
"o  c #8C6A18",
"O  c #896714",
"+  c #926E1F",
"@  c #95711B",
"#  c #9C781E",
"$  c #8C6E24",
"%  c #8C7326",
"&  c #947323",
"*  c #987524",
"=  c #957A24",
"-  c #9D7A24",
";  c #9C7D2B",
":  c #967B2A",
">  c #957631",
",  c #967935",
"<  c #9A7C32",
"1  c #967A3C",
"2  c #9C7F3E",
"3  c #A17C25",
"4  c #A17D2B",
"5  c #987D42",
"6  c #9E812D",
"7  c #9B8433",
"8  c #9F8830",
"9  c #9E813C",
"0  c #978533",
"q  c #A58225",
"w  c #A88427",
"e  c #A5822D",
"r  c #A9862E",
"t  c #A3892E",
"y  c #AC892E",
"u  c #B08D2D",
"i  c #B0922E",
"p  c #A48432",
"a  c #A98632",
"s  c #A58B33",
"d  c #AD8B32",
"f  c #A38539",
"g  c #A68D39",
"h  c #AC8B3B",
"j  c #B18E32",
"k  c #B28F39",
"l  c #AC9135",
"z  c #A7933B",
"x  c #AC943B",
"c  c #AE993E",
"v  c #B49334",
"b  c #B99636",
"n  c #BA9936",
"m  c #B39439",
"M  c #B89638",
"N  c #B49A3C",
"B  c #BB9C3A",
"V  c #B6A13C",
"C  c #BEA13D",
"Z  c #C09D3A",
"A  c #C2A43D",
"S  c #C7A93F",
"D  c #CAAC3F",
"F  c #9D8245",
"G  c #9E8548",
"H  c #A48947",
"J  c #AA8D43",
"K  c #A2894C",
"L  c #A48847",
"P  c #AC9443",
"I  c #AD9A41",
"U  c #AB924D",
"Y  c #A39643",
"T  c #B39346",
"R  c #B39E41",
"E  c #BC9E42",
"W  c #B59649",
"Q  c #B59D4A",
"!  c #B99C4B",
"~  c #A68D52",
"^  c #A88F54",
"/  c #AC9354",
"(  c #AE9659",
")  c #B49B54",
"_  c #B99C52",
"`  c #B59C5A",
"'  c #BA9E5C",
"]  c #B09454",
"[  c #B5A244",
"{  c #BCA443",
"}  c #BEA847",
"|  c #B6A649",
" . c #BBA549",
".. c #B3A84C",
"X. c #BCAB4B",
"o. c #BEB04F",
"O. c #BAA256",
"+. c #BCA25B",
"@. c #BFA85A",
"#. c #B6A15A",
"$. c #BDAB61",
"%. c #BCA360",
"&. c #C3A541",
"*. c #C5AA43",
"=. c #CAAD43",
"-. c #C4AD4A",
";. c #CAAF4A",
":. c #C4A649",
">. c #D0AF45",
",. c #CDB246",
"<. c #C6B24C",
"1. c #CCB44B",
"2. c #CAB54B",
"3. c #D0B447",
"4. c #D1B649",
"5. c #D5BB4C",
"6. c #D9BE4E",
"7. c #C0A553",
"8. c #C7AC53",
"9. c #C3AB5C",
"0. c #C9AF5F",
"q. c #C4A95A",
"w. c #C3B653",
"e. c #CCB554",
"r. c #C6B955",
"t. c #CDBB53",
"y. c #CAB35C",
"u. c #D3BC52",
"i. c #D8BE51",
"p. c #D2BB5C",
"a. c #C3AC61",
"s. c #C9AF63",
"d. c #C4B265",
"f. c #CCB463",
"g. c #C5B569",
"h. c #CCBB6B",
"j. c #D1B964",
"k. c #D4BD6A",
"l. c #DAC14F",
"z. c #D6C255",
"x. c #DCC353",
"c. c #DEC956",
"v. c #D5C35B",
"b. c #DBC55A",
"n. c #DCC959",
"m. c #D7CC5C",
"M. c #E0C654",
"N. c #E2CA56",
"B. c #E0C658",
"V. c #E4CD59",
"C. c #E6D15B",
"Z. c #EAD45D",
"A. c #EDD85F",
"S. c #F0DB5E",
"D. c #D4C162",
"F. c #DBC566",
"G. c #DEC964",
"H. c #D3C16C",
"J. c #DCC66D",
"K. c #DBCB6E",
"L. c #CFC170",
"P. c #D5C672",
"I. c #DAC571",
"U. c #DDCC73",
"Y. c #DFD67B",
"T. c #E2CD63",
"R. c #E2CF6B",
"E. c #E5D263",
"W. c #EBD661",
"Q. c #EEDA61",
"!. c #E4D56A",
"~. c #F2DD63",
"^. c #F2DE6B",
"/. c #E0CC75",
"(. c #E2D373",
"). c #EBDB74",
"_. c #E4D37A",
"`. c #E9D67A",
"'. c #EBDA7D",
"]. c #E5D87A",
"[. c #F0DE7C",
"{. c #EFE468",
"}. c #F5E166",
"|. c #F8E467",
" X c #F6E469",
".X c #F9E669",
"XX c #FDEC6C",
"oX c #F6EB6C",
"OX c #FFF26F",
"+X c #F4E373",
"@X c #FEEE72",
"#X c #F3E17D",
"$X c #F7E978",
"%X c #FFEF7F",
"&X c #FFF471",
"*X c #FFFB76",
"=X c #FFF57C",
"-X c #FFFD7B",
";X c #F0DF81",
":X c #F4E384",
">X c #F8E780",
",X c #FAEA83",
"<X c #FAED89",
"1X c #FFF48C",
"2X c None",
/* pixels */
"2X2X2X2X2X2X2X2X2X2X2X2X2X2X2X2X2X2X2X2X2X2X2X2X2X2X2X2X2X2X2X2X2X2X2X2X2X2X2X2X2X2X2X2X2X2X2X2X2X2X2X2X2X2X2X2X2X2X2X2X2X2X2X2X",
"2X2X2X2X2X2X2X2X2X2X2X2X2X2X2X2X2X2X2X2X2X2X2X2X2X2X5.5.i.i.x.x.N.V.C.E.S.W.2X2X2X2X2X2X2X2X2X2X2X2X2X2X2X2X2X2X2X2X2X2X2X2X2X2X",
"2X2X2X2X2X2X2X2X2X2X2X2X2X2X2X2X2X2X2X2X2X2X;.=.>.i.M.M.B.x.x.x.i.x.B.V.~.~..X^.}.2X2X2X2X2X2X2X2X2X2X2X2X2X2X2X2X2X2X2X2X2X2X2X",
"2X2X2X2X2X2X2X2X2X2X2X2X2X2X2X2X2X2X2X:.*.3.6.M.Z.~.~.Q.W.V.b.x.u.e.;.=.&.&.=.i.~.XXXXXX2X2X2X2X2X2X2X2X2X2X2X2X2X2X2X2X2X2X2X2X",
"2X2X2X2X2X2X2X2X2X2X2X2X2X2X2X2X2X&.A >.5.E.oX&X=X$X).U.P.H.h.g.d.d.@.9.q.7.:.M v B u..X-X&X2X2X2X2X2X2X2X2X2X2X2X2X2X2X2X2X2X2X",
"2X2X2X2X2X2X2X2X2X2X2X2X2X2X2X2XZ =.5.V.XX@X+X].Y._.(.R.G.b.x.5.,.-.-. .! ) ) ` O.! k h -..X-X&X2X2X2X2X2X2X2X2X2X2X2X2X2X2X2X2X",
"2X2X2X2X2X2X2X2X2X2X2X2X2X2XB S :.V.^.+X(.U.(.+X@XXX.XS.Z.V.M.l.5.4.D S A B M l J U ( _ k e 2.@XXX2X2X2X2X2X2X2X2X2X2X2X2X2X2X2X",
"2X2X2X2X2X2X2X2X2X2X2X2X2XM A 5.Q.}./.P.(.^.XXXXOXOXOX|.S.A.V.c.x.5.3.,.S &.B n i y s H / _ a a p.XXZ.2X2X2X2X2X2X2X2X2X2X2X2X2X",
"2X2X2X2X2X2X2X2X2X2X2X2XZ E x.~.R.H.I.~.|.|.|. X}.XXOXXX|.~.Z.C.x.l.5.4.,.S C B n M y y e G ( T 3 :.~.V.2X2X2X2X2X2X2X2X2X2X2X2X",
"2X2X2X2X2X2X2X2X2X2Xv Z E N.W.H.k.E.A.Q.Q.Q. X}.-. XOX&XXX|.~.Z.V.N.l.5.1.,.M l A n v i y w < ~ _ 4 d B.B.2X2X2X2X2X2X2X2X2X2X2X",
"2X2X2X2X2X2X2X2X2Xb Z &.N.E.h.k.Z.Z.Z.A.Q.}.n.Q.~.<.z.OX&XOX|.~.A.V.B.l.4.x.A.<.l n n v d y w - 5 ` h 4 5.5.2X2X2X2X2X2X2X2X2X2X",
"2X2X2X2X2X2X2X2Xv B B B.T.g.D.V.V.C.C.A.A.~.Q.5.V.t.}.XXXXOXXX|.~.Z.V.N.5.5.A.m.l S B b M j a y 3 5 ` J 4 4.4.2X2X2X2X2X2X2X2X2X",
"2X2X2X2X2X2X2X2Xb N l.G.g.v.N.N.V.C.C.Z.Z.A.A.[ t.t.|..XXXXXOXOX|.~.C.V.N.&.N *.C =.A B n v j y r 3 1 ` h 4 4.;.2X2X2X2X2X2X2X2X",
"2X2X2X2X2X2X2Xj m 5.b.d.p.l.x.N.u.x.C.C.C.A.A.W.|.Q.}.|..XXXXX&XXX|.~.A.V.i.6.5.,.=.*.A B b j j r r 3 1 ` h a 4.S 2X2X2X2X2X2X2X",
"2X2X2X2X2X2Xj m ;.x.d.e.6.x.x.N.5.-.N.N.C.Z.Z.A.Q.~.}.}.|..XXXOXOXOX|.S.Z.C.N.l.5.1.,.S A A l u j y r # 5 ' a h >.2X2X2X2X2X2X2X",
"2X2X2X2X2Xu v B i.f.9.6.5.x.5.x..XN.N B.C.C.Z.Z.A.A.|.oXm.|..X.XV.2.m..X~.Z.V.x.l.5.3.=.*.A.Q.[ e v r y # K _ p B B 2X2X2X2X2X2X",
"2X2X2X2X2Xa v 4.p.$.4.5.5.5.l.,.2.u.4.C.V.V.V.Z.A.A.}.XXr.Q..X.Xl.C | OX|.Q.Z.V.c.l.5.3.*.<.C.[ u M d y y * ( W r &.M 2X2X2X2X2X",
"2X2X2X2Xy v &.u.$.<.3.5.5.5.l.*.{ <.1.V.c.V.V.Z.Z.Z.Q.XXw.C.|.|.V.,.X.*XOX.X|.A.V.B.l.5.,.s N n n n v j y w 1 +.h j Z 2X2X2X2X2X",
"2X2X2X2Xr m ,.0.@.,.1.,.3.5.5.6.l.x.l.c.N.V.N.V.C.Z.Q.|.W.oX|.~.V.l.<.N.n.V.C.Q.S.V.N.l.5.,.,.A A B n v u d # / _ a Z j 2X2X2X2X",
"2X2X2Xr j A e.+.*.,.,.,.4.4.5.5.5.l.l.x.c.l.l.N.C.Z.Q.}.oXOXOX~.C.c.l.D C v y M 5.A.C.x.l.5.,.,.*.A B n v l y : %.m h b 2X2X2X2X",
"2X2X2Xa k =.0.O.D =.,.S V 4.4.5.5.l.l.l.l.l.l.c.V.C.Z.~.|..XOX.XA.V.l.4.,.A C v 3 B C.V.c.l.5.3.,.S n m n m v q ^ 7.d M j 2X2X2X",
"2X2X2Xj M ;.+.{ D *.1.c.2.*.*.5.5.5.5.l.x.4.[ [ [ [ x.~.r.X.w.r.~.C.R [ R x d i v - R W.V.c.l.5.4.,.5.N B v v y 2 a.m j j 2X2X2X",
"2X2Xr j C e.) A *.*.*.A.}.c *.4.1.5.4.N z.5.4.z.x.x.V.A.| x.C.C.oXC...}.~.~.E.<.j j * -.Q.V.N.l.5.1.|.~.l l B M 3 ' 7.j b 2X2X2X",
"2X2Xe d &.@.Q A A *.A l <.C ,.,.3.5.4.N { [ 4.c.M.N.V.Z.o.n.A.A.OXQ.X.}.|.|.XXXX5.y w < Z.Z.C.x.l.,.{ u.N A B n u U s.v M a 2X2X",
"2X2Xa M *.#.B A A S C m A C ,.,.,.{ } =.} ,.l.l.x.x.N.C.X.c.C.C.OXoXX.~.}.|.}..XZ.i u & m.~.Z.V.N.1.N *.V S A B b f a.E m a 2X2X",
"2Xr j b 7.) B C C A S *.*.=.*.,.4.C N 2.l.5.l.l.l.x.c.V.| x.C.C..XoXo.A.Q.}.|..XZ.v M & v.XXQ.Z.V.c.x.5.,.,.S A C y a.-.v a 2X2X",
"2Xp j M 7.W n B C A A A S *.=.*.C z.*.5.4.5.5.5.6.l.l.V.} z.V.V.|. Xo.A.A.}.~.|.V.b B % m.OX|.~.A.V.M.l.5.1.,.S S i O.y.B j 2X2X",
"2X4 j B O.R n B B C C A A S *.=.C [ *.,.4.4.5.5.5.l.l.N.[ l.N.V.}.|.X.A.A.Q.Q.}.3.A B % C.*XOX|.S.A.V.c.l.6.3.,.*.n O.j.A M 4 2X",
"2Xe h B ' m n B C v m A A A *.C z.C ,.,.,.,.5.5.5.6.l.x.[ 5.N.N.~.{.X.Z.Z.A.Q.V.,.=.v 0 .XXXOXOX|.~.Z.V.x.*.5.1.,.A Q k.:.M a 2X",
"2Xe a A ` h n v i A m n A A S n { } D ,.,.,.,.5.5.5.5.x.[ 5.N.N.A.Q.} C.Z.A.C.x.5.,.% z.XXXXOXOXXX.X~.A.l.x u.5.3.*.Q H.,.M 4 2X",
"2Xa d B ` l m 1.V.A.5.=.v n n *.C C D ,.,.,.,.,.3.5.5.l.[ 5.x.x.A.A.| V.C.|.A.V.t.0 [ |.|..XXXXXOXoXW.Q.A.5.2.,.*.3.! I.e.B 4 2X",
"2Xa a E ) d v N c.|.XXt.8 C m c o.C D *.,.=.,.,.3.5.4.5.N t.l.x.Z.Z.| V.C.XX~.C.2.-.~.|.|.|..XXXOX&XQ.V.|.XXN.N 2.5.:.I.i.A 4 2X",
"2Xr a E ) y b y C l.Z.-.i C A n N A S *.*.=.=.,.,.4.,.5.c 1.l.l.C.C.| N.V.oXXX~.C.l.l.A.|.|.|. XXXXX*XA.5.Q.m.u.V.i.X./.b.&.4 2X",
"2Xr a E ( p v v l 6 N -.n n C A B A A S D D =.,.,.4.,.4.c 2.l.l.V.V.| x.N.t.t.m.C.N.5.,.V.}.}.|.|.XXOX5.R x.5.x.C.x.8._.N.&.4 2X",
"2Xe r m ) p v y ; l v y v B C n ,.*.B *.S *.=.=.,.,.,.,.c ,.l.5.V.N.[ x.N.B.x.u.t.x.M.5.{ C.}.}.|..XoXz.{.&XC.b.~.c.e.`.T.&.4 2X",
"2Xe a m ` f u j v i v v n b B b C R l C S S *.=.D ,.,.,.x ,.5.5.N.c.[ x.x.N.V.C.C.x.M.l.,.} Q.}.|..X.XXXOXOX&X.X~.V.v.;XC.A 4 2X",
"2Xe a k _ H w u i v v v n v B m 6 N x C A S *.S *.,.D =.x =.5.5.x.x.R l.x.c.N.N.V.V.V.l.l.N z.|.~.|.}..XXXXX&XXXXXn.K.>XZ.Z 4 2X",
"2Xe j y _ K w j d j j i v v n n l C B B C A A *.D *.*.*.x *.4.3.x.x.R l.l.x.l.M.N.V.C.V.x.*.-.~.Q.~.}.|..XXXXX&XOXC.'.,XW.j 2X2X",
"2X4 j a W / 3 j r d j v v v M n n m [ v A C A S *.S S S z *.3.3.x.z.R 5.l.l.x.N.N.N.V.C.N.<.[ ~.Q.~.}.}..X.XXXXXOXC.<X=XV.4 2X2X",
"2X2Xj a m ) < r y t r u y v v v n d x A l B C A A *.A S l *.,.,.5.5.I 5.5.l.l.l.x.N.V.S.C.1.R A.A.Q.Q.}.|.~.2.XXoX!.1X=Xb.4 2X2X",
"2X2Xr a a _ H w w B d d v j v v v n v x C *.B C A A A A s S ,.,.5.5.x 5.5.5.l.l.l.l.Q.|.A.<.| A.Z.Q.Q.~.|.x.} .XA.+X1X&X<.3 2X2X",
"2X2Xa j r W ~ - e C u.; y y u v v M m y C } v C A A B A l C =.,.5.5.c 3.5.l.l.l.l.c.OXoXQ.[ <.A.C.Z.A.V.A.n.z.oXm.,X,X}.b 2X2X2X",
"2X2X2Xj r h ` , e m b.B l r v v v v v n s N v C A A B B 8 C ,.=.4.1.z 2.,.4.5.5.c.|.XXOXW.Y x.C.C.Z.A.A z.t.n.2.!.<X@Xx.e 2X2X2X",
"2X2X2Xr a e _ ~ @ &.t.1.<.* u d i v v v n l v n b B B B l C *.*.,.1.C 3.5.l.c.C.S.}.XXoX..-.C.N.V.C.1.m.N *.z.o.[.$X X:.r 2X2X2X",
"2X2X2Xr v a h ` > - ;.0 n { ; v u v i v n d r y d v v n C C C D ,.,.5.5.x.N.V.C.A.|.~...[ N.c.N.V.N.4.X. .<.{ T.:X+XV.j 2X2X2X2X",
"2X2X2X2Xy d 4 _ ~ + v t.<.<.- a j y v v v y e y u i v b B C S D ,.,.5.6.l.M.V.C.N.t.Y [ x.x.x.N.N.C z. .z.t.-.[.[.~.;.j 2X2X2X2X",
"2X2X2X2Xy v a a ' 5 @ { c 7 u.* y j d v v y * - ; 6 y n y s l x S ,.V V { } | R Y c ,.l.l.l.x.x.2.z.[ =. .{ R.;X^.B.b 2X2X2X2X2X",
"2X2X2X2X2Xd j 4 T ` $ - 1.u.N { t r j u l v a s s d i v 6 l v m A S 0 N N C C *.,.5.5.5.5.x.l.4.} { &.b. .5.;X).Z.=.b 2X2X2X2X2X",
"2X2X2X2X2Xj M a 4 _ ^ o 4  .p u.*.; y y v v v b n n v i 6 N S A S *.s =.,.,.,.,.3.4.4.5.5.l.C t.<.*.t.I <.`.`.W.5.M 2X2X2X2X2X2X",
"2X2X2X2X2X2Xy M a a ' K o d x.N p z.; r u y y v v M y ; : v C C x l 8 *.S *.=.,.,.,.,.5.,.A z.c N 1.<.V R.`.W.x.=.2X2X2X2X2X2X2X",
"2X2X2X2X2X2X2Xj k r a ' F X : :.u.R *.B 4 y l v v v M d i n B C B m B &.S S D =.2.,.1.C 1.} R 2.n.z V G.`.T.B.4.&.2X2X2X2X2X2X2X",
"2X2X2X2X2X2X2X2XZ k 4 h ' F X s -.s X.<.*.d r y v v v M B b b B B A A A A S *.*.=.A *.*.<.{ *.{ { N F._.T.B.5.*.2X2X2X2X2X2X2X2X",
"2X2X2X2X2X2X2X2Xj Z m 4 g ' K O + ,.z.$ <.<.*.d r y v v v n n n B C C A A A C C C *.r.} s *.v.z V F._.B.B.i.,.2X2X2X2X2X2X2X2X2X",
"2X2X2X2X2X2X2X2X2Xb Z M r f ' ] $ o < 4.z.$ <.-.2.N l d y v m n n B b n m C } ,.<.} 6 *.C.z t } K./.p.x.b.5.2X2X2X2X2X2X2X2X2X2X",
"2X2X2X2X2X2X2X2X2X2Xb Z M 4 4 _ ` 5 o : h =.x.% *.[ 5.-.5.M M n n b ,.5.<.<.{ { 6 *.c.x l l e.I.J.u.i.V.i.2X2X2X2X2X2X2X2X2X2X2X",
"2X2X2X2X2X2X2X2X2X2X2XM &.E j 4 T +./ > . 8 x :.n.6 *.z { x y n b v } x l V t 4.v.l c t :.k.I.j.4.x.~.B.2X2X2X2X2X2X2X2X2X2X2X2X",
"2X2X2X2X2X2X2X2X2X2X2X2X2XB *.M e a ) ' ] , . * 0 n n.d x. .4 b n v v x.m x.<.6 x 6  .f.I.j.;.5.Z.XXZ.2X2X2X2X2X2X2X2X2X2X2X2X2X",
"2X2X2X2X2X2X2X2X2X2X2X2X2X2XM =.Z k e h _ +.` J > %   * N ; r j y i t -.7 = s x 7.j.k.j.;.=.V.&X.XA.2X2X2X2X2X2X2X2X2X2X2X2X2X2X",
"2X2X2X2X2X2X2X2X2X2X2X2X2X2X2X2XA >.Z j r a W O.q.' _ U 9 f f p s g h J _ q.f.k.j.8.:.*.x.XX-X&X2X2X2X2X2X2X2X2X2X2X2X2X2X2X2X2X",
"2X2X2X2X2X2X2X2X2X2X2X2X2X2X2X2X2X&.*.5.:.M h r a T _ +.q.a.a.a.a.s.f.f.s.q. .E C =.B.XX-X&X2X2X2X2X2X2X2X2X2X2X2X2X2X2X2X2X2X2X",
"2X2X2X2X2X2X2X2X2X2X2X2X2X2X2X2X2X2X2X*.=.5.5.;.{ m j d a k k m M M m M n A ;.x.^.@XXXXX2X2X2X2X2X2X2X2X2X2X2X2X2X2X2X2X2X2X2X2X",
"2X2X2X2X2X2X2X2X2X2X2X2X2X2X2X2X2X2X2X2X2X2X>.4.5.M.M.i.5.5.,.1.e.e.x.V.~.^..X^.}.}.2X2X2X2X2X2X2X2X2X2X2X2X2X2X2X2X2X2X2X2X2X2X",
"2X2X2X2X2X2X2X2X2X2X2X2X2X2X2X2X2X2X2X2X2X2X2X2X2X2X5.5.x.x.B.N.V.V.Z.Z.A.A.2X2X2X2X2X2X2X2X2X2X2X2X2X2X2X2X2X2X2X2X2X2X2X2X2X2X",
"2X2X2X2X2X2X2X2X2X2X2X2X2X2X2X2X2X2X2X2X2X2X2X2X2X2X2X2X2X2X2X2X2X2X2X2X2X2X2X2X2X2X2X2X2X2X2X2X2X2X2X2X2X2X2X2X2X2X2X2X2X2X2X2X"
};
