/* XPM */
static char *bitcoin32[] = {
/* columns rows colors chars-per-pixel */
"32 32 105 2 ",
"   c #9D7D34",
".  c #9E8034",
"X  c #A6822D",
"o  c #A9862E",
"O  c #AB892E",
"+  c #A28233",
"@  c #AA8730",
"#  c #A58934",
"$  c #AB8B32",
"%  c #A3873C",
"&  c #A7883B",
"*  c #B18E32",
"=  c #B38F39",
"-  c #AE9035",
";  c #AF9438",
":  c #B39334",
">  c #B89736",
",  c #BA9A37",
"<  c #B3953A",
"1  c #B99739",
"2  c #B59B3C",
"3  c #BB9C3A",
"4  c #BCA13E",
"5  c #C2A43E",
"6  c #A68741",
"7  c #A78943",
"8  c #AB8D44",
"9  c #B08F43",
"0  c #AD9144",
"q  c #B29444",
"w  c #B79F42",
"e  c #BC9E43",
"r  c #B69A49",
"t  c #B99B4A",
"y  c #B7A243",
"u  c #BCA442",
"i  c #BFAA47",
"p  c #BDA34D",
"a  c #C2A442",
"s  c #C5AA44",
"d  c #C9AD44",
"f  c #C2A34B",
"g  c #C3AD4B",
"h  c #C9AE4B",
"j  c #CCB146",
"k  c #C6B14B",
"l  c #CCB34A",
"z  c #CEB84E",
"x  c #D0B447",
"c  c #D1B64A",
"v  c #D4BA4D",
"b  c #D8BE4E",
"n  c #C1A752",
"m  c #C4AC52",
"M  c #C8AC51",
"N  c #C6B251",
"B  c #CAB454",
"V  c #CDBA51",
"C  c #CCB358",
"Z  c #CEB95E",
"A  c #D4BD52",
"S  c #D8BD51",
"D  c #D0B658",
"F  c #D4BD5F",
"G  c #D3BF62",
"H  c #DAC04F",
"J  c #D5C155",
"K  c #DCC453",
"L  c #D4C35E",
"P  c #DAC45B",
"I  c #DECB5B",
"U  c #E0C755",
"Y  c #E1CA56",
"T  c #E4CD5A",
"R  c #E6D15D",
"E  c #EAD45D",
"W  c #EDD85F",
"Q  c #DBC665",
"!  c #DDCA66",
"~  c #E0CC61",
"^  c #E0CB6A",
"/  c #EAD661",
"(  c #ECDA63",
")  c #E2D16B",
"_  c #E8D36D",
"`  c #ECDA6B",
"'  c #F1DD63",
"]  c #F0DE69",
"[  c #E9D671",
"{  c #ECDB72",
"}  c #F1DD71",
"|  c #F4E266",
" . c #F9E567",
".. c #F5E468",
"X. c #F9E668",
"o. c #F7E86A",
"O. c #FDEC6C",
"+. c #FFF16E",
"@. c #EEE076",
"#. c #F5E473",
"$. c #F8E671",
"%. c #F4E976",
"&. c #FAEA7C",
"*. c #FFF271",
"=. c None",
/* pixels */
"=.=.=.=.=.=.=.=.=.=.=.=.=.=.=.=.=.=.=.=.=.=.=.=.=.=.=.=.=.=.=.=.",
"=.=.=.=.=.=.=.=.=.=.=.=.c K K K K K T ( =.=.=.=.=.=.=.=.=.=.=.=.",
"=.=.=.=.=.=.=.=.=.s H ' $.` ! G C m n h S R *.=.=.=.=.=.=.=.=.=.",
"=.=.=.=.=.=.=., l / { @.%.] T K c d e q 8 q l / =.=.=.=.=.=.=.=.",
"=.=.=.=.=.=., K ) ) ] X. .+.| T K c s , : $ % 9 z Y =.=.=.=.=.=.",
"=.=.=.=.=.1 S Q I W ( W K ' +.| E S v l , : O + 7 a c =.=.=.=.=.",
"=.=.=.=.* S G P Y R W I J | +.+.| E v d a 3 : O   8 e d =.=.=.=.",
"=.=.=.@ d Z A U K H R W ( | | O.| ' T K c s d > O   8 3 =.=.=.=.",
"=.=.=.1 C B b b l z R R W | I o.z I O.R K c l u * O + q < =.=.=.",
"=.=.@ h m j c v c K U Y E ' | o.K H H K R K j 5 , > O 8 1 * =.=.",
"=.=.: M s j j x v H H z J R / / R k 4 O , I K c d , : # t * =.=.",
"=.  a p 5 d z s c j s z J I V R E J E K O 4 R K v c 1 : r 1 =.=.",
"=.o a t 5 5 4 j j u j b H U z W | I | o.5 O / E v d s , q f O =.",
"=.@ t e 3 5 5 s s s v b H K l E ( I | ] j # | | E K x d r M $ =.",
"=.@ t < 3 , 5 5 u d j c b H k Y R J W T a y O.+.| T j l a C * =.",
"=.* r : b T 2 , 4 s j j j v s K R J ' W i R O.O.O.W T d h F < =.",
"=.# q : ; d 3 , 5 5 5 j j j i H K z R R K K |  .+.Y K K J ! 2 =.",
"=.@ q $ O * 2 , 4 4 5 5 j j 4 H K V K K K H v | o.' o.W I _ 2 =.",
"=.o q & * : > > : 3 5 5 5 j 4 c J k K Y R I s R | O.O.+.` } : =.",
"=.o < # O O - > ; ; 4 5 5 5 4 j c k H K K E z I ' | W | %.$.$ =.",
"=.X = 8 O 3 $ - > : 2 4 5 4 ; j j i H H K o.V K / E K R &.T =.=.",
"=.=.O 8 . s ; O : : * : 3 , 3 j j d H Y | ' k Y T l g L &.a =.=.",
"=.=.O = % # 4 # O : * X O : , 5 d c J I J i H I z s g [ / : =.=.",
"=.=.=.$ 0 . ; 4 - O * O O - O 2 4 4 4 4 i H H z i i F } s =.=.=.",
"=.=.=.* = 8   < w $ $ : > O O 4 ; 3 d d x l j u i N [ K =.=.=.=.",
"=.=.=.=.* < 8   < w 2 * * : > , 4 5 5 s s u u u g ! T s =.=.=.=.",
"=.=.=.=.=.: < 8   # 2 w 2 3 2 2 , 5 u u u u w m Q T v =.=.=.=.=.",
"=.=.=.=.=.=.1 1 9 6 + @ < 2 3 - 2 4 2 2 2 w M Q T T =.=.=.=.=.=.",
"=.=.=.=.=.=.=.5 , e 9 7 % # & # O < 0 w n D ~ | =.=.=.=.=.=.=.=.",
"=.=.=.=.=.=.=.=.=.d a a e t t t p f M A Y ' *.=.=.=.=.=.=.=.=.=.",
"=.=.=.=.=.=.=.=.=.=.=.=.c h l l c K T ( =.=.=.=.=.=.=.=.=.=.=.=.",
"=.=.=.=.=.=.=.=.=.=.=.=.=.=.=.=.=.=.=.=.=.=.=.=.=.=.=.=.=.=.=.=."
};
