/* XPM */
static char *bitcoin16[] = {
/* columns rows colors chars-per-pixel */
"16 16 160 2 ",
"   c #AD8B30",
".  c #AC8B31",
"X  c #AC8C31",
"o  c #AD8C31",
"O  c #AF8E33",
"+  c #A98836",
"@  c #AE8C37",
"#  c #AD8C3A",
"$  c #AF8F3E",
"%  c #B18F3C",
"&  c #B08F3D",
"*  c #AE9239",
"=  c #AE933A",
"-  c #AD913C",
";  c #B29133",
":  c #B49233",
">  c #B09034",
",  c #B29234",
"<  c #B29336",
"1  c #B29436",
"2  c #B39537",
"3  c #B49537",
"4  c #B69736",
"5  c #B39239",
"6  c #B0923B",
"7  c #B4933B",
"8  c #B4943B",
"9  c #B2913D",
"0  c #B2923E",
"q  c #B2923F",
"w  c #B4933D",
"e  c #B0963C",
"r  c #B69838",
"t  c #B79939",
"y  c #B69D3F",
"u  c #BA9A38",
"i  c #BA9C3A",
"p  c #BC9E3B",
"a  c #BC9F3C",
"s  c #BFA03D",
"d  c #BEA13D",
"f  c #BDA13F",
"g  c #C0A33F",
"h  c #C2A43D",
"j  c #C1A43F",
"k  c #C1A53F",
"l  c #C2A53F",
"z  c #C3A73F",
"x  c #B69840",
"c  c #B79942",
"v  c #B69943",
"b  c #B89840",
"n  c #B89A41",
"m  c #BA9B41",
"M  c #BD9D42",
"N  c #BB9C44",
"B  c #BC9E45",
"V  c #BDA544",
"C  c #BFA547",
"Z  c #C0A243",
"A  c #C2A540",
"S  c #C1A640",
"D  c #C1A641",
"F  c #C2A641",
"G  c #C4A841",
"H  c #C5A941",
"J  c #C7AA41",
"K  c #C5A943",
"L  c #C4AA43",
"P  c #C5AB44",
"I  c #C6AC44",
"U  c #C7AD45",
"Y  c #CAAF45",
"T  c #CAAE46",
"R  c #C3A649",
"E  c #C3AE4A",
"W  c #C7AB4C",
"Q  c #C7AB4D",
"!  c #CAAF49",
"~  c #CAAE4A",
"^  c #CBAE4D",
"/  c #CBB247",
"(  c #CCB247",
")  c #CFB347",
"_  c #CBB349",
"`  c #CDB449",
"'  c #CEB549",
"]  c #CEB54A",
"[  c #CEB64B",
"{  c #CFB84D",
"}  c #CFB94E",
"|  c #D2B84B",
" . c #D3B94B",
".. c #D0B94D",
"X. c #D3BA4D",
"o. c #D4BB4D",
"O. c #D3BC4E",
"+. c #D5BC4E",
"@. c #D5BD4F",
"#. c #D7BD4E",
"$. c #D9BF4F",
"%. c #CBB151",
"&. c #D0B551",
"*. c #D0B752",
"=. c #D5BE50",
"-. c #D2B854",
";. c #D7BD54",
":. c #D7BF5A",
">. c #D9C04F",
",. c #D7C153",
"<. c #DAC251",
"1. c #DBC251",
"2. c #D9C353",
"3. c #DCC352",
"4. c #DAC455",
"5. c #DAC556",
"6. c #DBC656",
"7. c #DCC554",
"8. c #DDC756",
"9. c #DCC757",
"0. c #DAC25B",
"q. c #DBC35B",
"w. c #DFC75D",
"e. c #DCC55E",
"r. c #E1C956",
"t. c #E0CB58",
"y. c #E1CB58",
"u. c #E1C95B",
"i. c #E3CC58",
"p. c #E0CC5A",
"a. c #E5CE59",
"s. c #E5CF5A",
"d. c #E1CA5D",
"f. c #E0C95E",
"g. c #E5D25D",
"h. c #E5D35E",
"j. c #E8D25B",
"k. c #E8D55F",
"l. c #EBD75F",
"z. c #E3CD63",
"x. c #E4CE60",
"c. c #E3CE64",
"v. c #E3D163",
"b. c #E6D460",
"n. c #E7D661",
"m. c #E9D365",
"M. c #EEDA61",
"N. c #EFDA61",
"B. c #EBD869",
"V. c #F0DB62",
"C. c #F0DC62",
"Z. c #F0DE64",
"A. c #F3E166",
"S. c #F7E467",
"D. c #F4E26B",
"F. c #F5E469",
"G. c #F8E86B",
"H. c #FDEC6C",
"J. c #FEED6D",
"K. c None",
/* pixels */
"K.K.K.K.K.K.K.K.K.K.K.K.K.K.K.K.",
"K.K.K.K.K.v.B.f.*.Q *.K.K.K.K.K.",
"K.K.K.~ m.D.F.N.o.A 7 N ^ K.K.K.",
"K.K.Z w.i.j.n.J.C.o.k O % N K.K.",
"K.K.&.o.O.i.M.N.t.a.<.A o w K.K.",
"K.x ~ (  ...8.b.6.I T $.k 8 9 K.",
"K.b d G P ' <.9.b.V.V j.o.A b K.",
"K.b K A k )  .=.i.a.{ J.M.' Q K.",
"K.w r i d z / ' ,.w.7.C.A.g.:.K.",
"K.#   , 4 d k P [ <.8.6.S.G.c.K.",
"K.+ 9 1 , 4 u k / <.k.6.<.v.q.K.",
"K.K.& = o   o r S _ { O.E z.K.K.",
"K.K.@ $ = 8 , 4 d P G V e.;.K.K.",
"K.K.K.7 9 - e 1 r n C q.f.K.K.K.",
"K.K.K.K.K.B v B R _ f.K.K.K.K.K.",
"K.K.K.K.K.K.K.K.K.K.K.K.K.K.K.K."
};
